<svg xmlns="http://www.w3.org/2000/svg" viewBox="808.32 786.92 210.26 155.33" fill="none">
  <path d="M912.6 858.084C911.983 854.807 912.234 821.723 912.301 818.16C912.368 814.597 923.333 814.308 923.257 818.349L922.506 858.253C922.464 860.514 913.217 861.362 912.6 858.084Z" fill="black"/>
  <path d="M875.482 842.054C877.426 848.536 877.883 854.552 879.63 855.533C882.293 857.03 888.329 854.961 888.385 851.962C888.442 848.963 884.695 831.32 882.093 828.603C879.491 825.887 871.499 831.652 873.293 835.602C873.911 836.962 874.462 838.653 875.482 842.054Z" fill="black"/>
  <path d="M842.422 843.702C842.655 840.887 847.375 838.519 850.137 838.713C852.898 838.906 864.349 867.761 864.897 870.943C865.446 874.125 859.484 877.616 857.856 876.386C856.227 875.155 842.19 846.518 842.422 843.702Z" fill="black"/>
  <path d="M941.41 848.92C942.219 844.521 947.307 831.157 950.489 829.188C953.671 827.22 958.682 830.893 958.621 834.114C958.561 837.334 951.74 852.813 949.043 854.671C946.347 856.529 940.601 853.319 941.41 848.92Z" fill="black"/>
  <path d="M967.763 875.694C964.935 877.392 958.608 870.063 960.223 867.479C961.839 864.895 975.103 840.031 979.608 838.445C984.114 836.859 988.601 842.671 986.351 846.565C984.1 850.46 970.59 873.997 967.763 875.694Z" fill="black"/>
  <path d="M898.599 846.565C893.116 846.565 891.721 905.153 891.721 905.153L914.551 904.589C914.551 904.589 904.082 846.565 898.599 846.565Z" fill="black"/>
  <path d="M1013.15 843.821C1013.58 820.824 971.309 791.917 917.651 791.917C863.993 791.917 820.032 816.816 816.676 836.328C813.32 855.841 835.302 928.726 856.12 932.272C865.608 933.888 871.798 934.029 876.933 932.272C883.066 930.174 892.18 926.753 912.832 927.031C933.483 927.31 950.552 932.866 954.579 934.675C958.606 936.484 960.918 937.247 970.982 936.484C981.046 935.722 987.132 922.096 993.259 906.508C1001.27 886.117 1012.73 866.286 1013.15 843.821ZM998.374 846.565C998.686 829.963 957.373 805.303 917.651 805.303C877.929 805.303 833.481 825.519 830.293 843.702C827.106 861.886 853.972 921.27 859.435 922.697C864.897 924.125 870.013 922.724 875.482 920.076C880.952 917.428 896.239 915.713 912.833 915.72C929.427 915.726 947.662 919.228 956.051 922.697C962.143 925.217 966.181 925.458 970.007 923.562C974.021 921.573 978.045 909.358 983.832 895.383C991.159 877.691 998.199 855.841 998.374 846.565Z" fill="black" fill-rule="evenodd" clip-rule="evenodd"/>
</svg>
