<svg xmlns="http://www.w3.org/2000/svg" viewBox="1416.91 779.69 156.93 164.71" fill="none">
  <path d="M1459.24 784.689H1439.7V802.955C1439.7 802.955 1431.47 806.979 1427.07 812.505C1422.66 818.03 1421.91 827.149 1421.91 827.149V913.672C1421.91 913.672 1424.11 939.4 1450.73 939.4C1477.35 939.4 1477.35 913.672 1477.35 913.672V863.2C1477.35 863.2 1460.08 859.188 1460.08 843.039C1460.08 826.89 1476.8 822.239 1476.8 822.239C1476.8 822.239 1474.59 815.45 1470.46 810.806C1466.33 806.163 1459.24 802.955 1459.24 802.955V784.689Z" fill="black"/>
  <path d="M1542.4 835.802H1487.92C1487.92 835.802 1485.68 832.264 1479.61 832.264C1473.55 832.264 1469.26 837.257 1469.26 843.039C1469.26 848.821 1473.29 853.602 1479.61 853.602C1485.94 853.602 1487.92 850.101 1487.92 850.101H1511.02L1514.9 888.721L1498.72 910.993L1510.42 938.507H1527.37L1516.89 912.736L1531.81 892.169H1532.78L1551.37 938.507H1568.84L1551.37 890.279V851.344C1551.37 851.344 1556.24 849.562 1556.24 843.34C1556.24 837.117 1551.57 834.164 1547.8 834.163C1544.02 834.163 1542.4 835.802 1542.4 835.802Z" fill="black"/>
  <path d="M1550.44 809.604C1550.44 820.374 1541.71 829.104 1530.94 829.104C1520.17 829.104 1511.44 820.374 1511.44 809.604C1511.44 798.834 1520.17 790.104 1530.94 790.104C1541.71 790.104 1550.44 798.834 1550.44 809.604Z" fill="black"/>
</svg>
