<svg xmlns="http://www.w3.org/2000/svg" viewBox="1110.90 1748.61 184.38 170.60" fill="none">
  <path d="M1152.31 1851.6C1157.02 1869.01 1175.52 1878.11 1175.52 1878.11C1180.45 1878.11 1189.55 1878.95 1186.63 1875.61C1183.71 1872.27 1162.18 1850.54 1168.06 1828.55C1173.93 1806.56 1195.56 1819.35 1195.56 1819.35C1195.56 1819.35 1217.06 1796.64 1231.93 1819.93C1246.79 1843.22 1223.68 1874.51 1223.68 1874.51C1221.68 1879.94 1226.65 1879.93 1233.88 1878.11C1233.88 1878.11 1251.7 1856.86 1251.7 1828.07C1251.7 1799.29 1244.34 1777.73 1199.04 1781.29C1153.74 1784.86 1142.98 1817.13 1152.31 1851.6Z" fill="black"/>
  <path d="M1178.92 1843.1C1180.79 1857.9 1198.96 1873.89 1198.96 1873.89H1210.72C1210.72 1873.89 1224.47 1856.66 1224.47 1842.31C1224.47 1827.97 1216.99 1821.5 1213.79 1820.59C1210.58 1819.68 1206.8 1822.17 1206.8 1824.77C1206.8 1827.37 1215.21 1828.55 1213.79 1838.91C1212.36 1849.26 1194.47 1854.81 1190.49 1843.1C1186.52 1831.38 1193.07 1827.36 1190.49 1823.94C1187.91 1820.53 1177.05 1828.29 1178.92 1843.1Z" fill="black"/>
  <path d="M1195.56 1832.88C1195.56 1828.07 1198.79 1827.42 1200.04 1827.36C1201.29 1827.3 1204.44 1828.7 1204.93 1832.88C1205.41 1837.05 1203.01 1841.04 1200.64 1840.95C1198.27 1840.86 1195.56 1837.68 1195.56 1832.88Z" fill="black"/>
  <path d="M1231.44 1897.6L1179.03 1897.85C1179.03 1897.85 1175.55 1897.85 1175.55 1893.94C1175.55 1890.03 1180.31 1887.25 1182.14 1887.19L1227.57 1887.14C1229.92 1887.21 1233.88 1890.29 1233.88 1893.94C1233.88 1897.6 1231.44 1897.6 1231.44 1897.6Z" fill="black"/>
  <path d="M1232.9 1914.01L1179 1914.21C1179 1914.21 1175.52 1914.21 1175.52 1910.3C1175.52 1906.4 1180.29 1903.61 1182.11 1903.56H1229.03C1231.38 1903.62 1235.33 1906.7 1235.33 1910.35C1235.33 1914.01 1232.9 1914.01 1232.9 1914.01Z" fill="black"/>
  <path d="M1267.33 1890.71C1266.85 1891.13 1266.11 1891.01 1265.8 1890.45L1253.48 1868.27C1253.03 1867.46 1253.83 1866.52 1254.7 1866.85L1281.08 1876.7C1281.78 1876.97 1281.95 1877.89 1281.38 1878.39L1267.33 1890.71Z" fill="black"/>
  <path d="M1262.38 1839.32C1261.45 1839.63 1261.46 1840.94 1262.39 1841.23L1288.99 1849.45C1289.63 1849.65 1290.28 1849.17 1290.28 1848.49V1831.58C1290.28 1830.9 1289.62 1830.42 1288.97 1830.63L1262.38 1839.32Z" fill="black"/>
  <path d="M1274.01 1783.13C1274.46 1782.61 1275.28 1782.69 1275.63 1783.27L1284.31 1797.98C1284.68 1798.6 1284.29 1799.39 1283.57 1799.48L1259.55 1802.4C1258.64 1802.51 1258.07 1801.44 1258.67 1800.75L1274.01 1783.13Z" fill="black"/>
  <path d="M1243.49 1781.75C1243.45 1782.65 1244.54 1783.14 1245.19 1782.51L1262.98 1765.14C1263.49 1764.64 1263.32 1763.77 1262.66 1763.5L1245.93 1756.59C1245.29 1756.32 1244.58 1756.78 1244.55 1757.47L1243.49 1781.75Z" fill="black"/>
  <path d="M1198.22 1770.55C1198.61 1771.17 1199.5 1771.19 1199.91 1770.58L1210.17 1755.16C1210.62 1754.5 1210.14 1753.61 1209.34 1753.61H1189.55C1188.77 1753.61 1188.29 1754.47 1188.7 1755.13L1198.22 1770.55Z" fill="black"/>
  <path d="M1161.45 1780.33C1162.2 1780.72 1163.06 1780.05 1162.87 1779.22L1158.42 1759.18C1158.27 1758.48 1157.46 1758.17 1156.87 1758.57L1142.11 1768.86C1141.49 1769.29 1141.56 1770.23 1142.23 1770.57L1161.45 1780.33Z" fill="black"/>
  <path d="M1139.91 1802.37C1140.84 1802.49 1141.4 1801.39 1140.77 1800.7L1125.57 1784.28C1125.11 1783.78 1124.31 1783.87 1123.97 1784.46L1116.25 1797.99C1115.9 1798.61 1116.29 1799.39 1116.99 1799.48L1139.91 1802.37Z" fill="black"/>
  <path d="M1139.9 1835.17C1140.65 1834.67 1140.41 1833.52 1139.53 1833.35L1118.19 1829.44C1117.53 1829.32 1116.94 1829.87 1117.01 1830.53L1118.76 1847.46C1118.84 1848.21 1119.68 1848.61 1120.31 1848.19L1139.9 1835.17Z" fill="black"/>
  <path d="M1143.68 1889.76C1143.44 1890.4 1142.65 1890.62 1142.12 1890.19L1128.43 1879.13C1127.85 1878.66 1127.96 1877.75 1128.64 1877.44L1150.11 1867.68C1150.93 1867.31 1151.78 1868.1 1151.47 1868.94L1143.68 1889.76Z" fill="black"/>
</svg>
