<svg xmlns="http://www.w3.org/2000/svg" viewBox="830.43 1749.39 170.18 168.65" fill="none">
  <path d="M915.245 1776.19C905.771 1770.5 901.202 1754.39 901.202 1754.39C901.202 1754.39 897.317 1756.24 897.046 1762.68C896.775 1769.12 901.925 1779.51 897.678 1783.39C893.431 1787.28 875.828 1790.12 875.828 1799.72C875.828 1809.33 884.75 1816.19 914.282 1816.19C943.814 1816.19 951.163 1804.57 951.163 1800.68C951.163 1796.79 948.086 1796.75 947.895 1796.08C947.703 1795.41 949.907 1793.24 945.986 1788.99C942.065 1784.74 924.718 1781.88 915.245 1776.19Z" fill="black"/>
  <path d="M917.305 1831.01C892.852 1831.01 877.797 1823.05 871.849 1823.58C865.901 1824.12 860.387 1830.27 860.387 1835.12C860.387 1839.98 862.199 1860.57 917.305 1860.57C972.152 1860.57 972.144 1835.99 972.142 1832.01V1831.95C972.142 1828.14 967.485 1821.87 960.004 1820.48C952.522 1819.09 941.758 1831.01 917.305 1831.01Z" fill="black"/>
  <path d="M982.521 1862.6C972.296 1861.65 952.274 1877.9 915.466 1877.9C878.659 1877.9 861.709 1859.58 849.469 1858.65C837.229 1857.72 835.428 1870.51 836.382 1875.01C837.336 1879.51 847.56 1912.23 920.085 1912.63C992.609 1913.04 995.608 1877.33 995.471 1875.01C995.335 1872.69 992.745 1863.56 982.521 1862.6Z" fill="black"/>
</svg>
