<svg xmlns="http://www.w3.org/2000/svg" viewBox="1094.45 784.42 214.92 158.08" fill="none">
  <path d="M1147.83 870.306C1149.72 870.345 1151.55 870.384 1152.99 869.843C1156.38 868.569 1167.32 852.826 1169.73 847.075C1172.14 841.324 1178.18 823.298 1177.34 820.734C1177.03 819.798 1176.24 818.898 1175.35 817.895C1173.81 816.15 1171.99 814.095 1171.99 811.002C1171.99 806.132 1186 789.424 1199.26 790.294C1207.85 790.859 1214.09 800.245 1219.12 807.827C1221.86 811.94 1224.24 815.522 1226.45 816.878C1228.66 818.235 1232.62 817.611 1237.28 816.873C1245.87 815.515 1256.88 813.774 1263.95 823.304C1273.21 835.783 1264.67 864.674 1261.91 873.994C1261.42 875.66 1261.11 876.701 1261.12 876.911C1261.2 878.299 1261.84 878.956 1263.18 878.974C1263.54 878.979 1264.69 878.098 1266.37 876.803C1270.93 873.301 1279.42 866.775 1286.92 866.596C1297.1 866.352 1299.95 874.886 1301.85 880.599L1301.9 880.765C1303.81 886.478 1304.37 894.501 1301.37 899.421C1299.61 902.292 1294.93 903.423 1291.24 904.315C1288.61 904.952 1286.48 905.467 1286.27 906.406C1286.07 907.299 1286.86 908.571 1287.89 910.232C1289.46 912.768 1291.6 916.211 1291.65 920.601C1291.73 927.867 1283.09 932.466 1272.92 934.983C1262.75 937.5 1253.86 934.983 1249.79 929.098C1246.76 924.733 1247.85 915.899 1248.48 910.801C1248.69 909.027 1248.86 907.705 1248.77 907.182C1248.44 905.155 1248.11 904.956 1246.8 905.028C1246.51 905.045 1245.32 906.616 1243.49 909.051C1237.21 917.404 1223.29 935.918 1211.32 936.666C1201.14 937.302 1193.27 927.248 1187.19 919.491C1184.03 915.463 1181.36 912.054 1179.1 911.083C1176.78 910.084 1172.86 910.098 1168.3 910.114C1159.88 910.144 1149.28 910.181 1142.44 903.9C1131.88 894.211 1137.48 873.972 1140.76 871.576C1142.65 870.198 1145.29 870.253 1147.83 870.306ZM1252.88 894.276C1252.73 893.211 1255.64 887.959 1256.68 888.227C1256.87 888.278 1257.14 888.385 1257.48 888.52C1258.92 889.096 1261.63 890.178 1265.37 889.515C1267.49 889.139 1271.61 886.176 1275.78 883.182C1280.67 879.66 1285.63 876.094 1287.47 876.642C1290.87 877.656 1293.79 888.739 1292.6 892.401C1292.1 893.942 1289.41 894.595 1286.27 895.357C1281.96 896.406 1276.79 897.66 1275.34 901.718C1273.7 906.306 1275.96 910.748 1277.87 914.486C1278.87 916.454 1279.77 918.228 1279.96 919.725C1280.48 924.065 1262.02 928.039 1259.68 924.264C1258.27 921.978 1258.85 916.363 1259.36 911.472C1259.69 908.284 1259.99 905.404 1259.68 903.95C1259.19 901.597 1256.61 898.736 1254.77 896.7C1253.73 895.548 1252.93 894.66 1252.88 894.276ZM1194.36 865C1197.31 865 1199.69 862.62 1199.69 859.684C1199.69 856.748 1197.31 854.367 1194.36 854.367C1191.42 854.367 1189.03 856.748 1189.03 859.684C1189.03 862.62 1191.42 865 1194.36 865ZM1204.82 830.293C1204.82 833.229 1202.44 835.609 1199.49 835.609C1196.55 835.609 1194.16 833.229 1194.16 830.293C1194.16 827.356 1196.55 824.976 1199.49 824.976C1202.44 824.976 1204.82 827.356 1204.82 830.293ZM1240.86 854.892C1243.8 854.892 1246.19 852.512 1246.19 849.576C1246.19 846.64 1243.8 844.259 1240.86 844.259C1237.91 844.259 1235.53 846.64 1235.53 849.576C1235.53 852.512 1237.91 854.892 1240.86 854.892ZM1234.68 874.613C1234.68 877.549 1232.29 879.929 1229.35 879.929C1226.41 879.929 1224.02 877.549 1224.02 874.613C1224.02 871.677 1226.41 869.296 1229.35 869.296C1232.29 869.296 1234.68 871.677 1234.68 874.613ZM1202.76 888.793C1205.7 888.793 1208.09 886.413 1208.09 883.477C1208.09 880.541 1205.7 878.16 1202.76 878.16C1199.81 878.16 1197.43 880.541 1197.43 883.477C1197.43 886.413 1199.81 888.793 1202.76 888.793ZM1174.45 880.94C1174.45 883.877 1172.06 886.257 1169.12 886.257C1166.17 886.257 1163.79 883.877 1163.79 880.94C1163.79 878.004 1166.17 875.624 1169.12 875.624C1172.06 875.624 1174.45 878.004 1174.45 880.94ZM1211.07 913.879C1214.01 913.879 1216.4 911.499 1216.4 908.562C1216.4 905.626 1214.01 903.246 1211.07 903.246C1208.12 903.246 1205.74 905.626 1205.74 908.562C1205.74 911.499 1208.12 913.879 1211.07 913.879Z" fill="black" fill-rule="evenodd" clip-rule="evenodd"/>
  <path d="M1164.07 844.68C1165.73 840.653 1168.79 831.316 1167.66 829.813C1167.25 829.263 1165.5 828.491 1163.43 827.578C1159.86 825.996 1155.31 823.987 1155.05 821.962C1154.87 820.571 1155 816.913 1155.14 813.051C1155.32 808.038 1155.51 802.681 1155.05 801.491C1154.23 799.384 1149.66 792.798 1147.11 791.976C1144.57 791.153 1136.35 791.976 1129.91 794.147C1123.46 796.319 1117.04 802.151 1116.54 807.01C1116.29 809.507 1117.52 812.794 1118.61 815.704C1119.64 818.457 1120.55 820.873 1119.94 821.962C1119.13 823.434 1116.76 823.589 1114.25 823.753C1112.96 823.837 1111.62 823.924 1110.45 824.2C1107.03 825.005 1104.9 827.345 1102.18 831.316C1099.45 835.288 1103.32 848.538 1104.18 850.694C1105.04 852.851 1111.3 865.713 1120.64 865.979C1126.57 866.148 1132.6 860.213 1137.02 855.864C1139.56 853.368 1141.57 851.395 1142.72 851.395C1144.34 851.395 1147.15 853.241 1149.76 854.956C1152.24 856.582 1154.53 858.09 1155.47 857.794C1157.38 857.186 1162.41 848.708 1164.07 844.68ZM1142.83 801.718C1139.37 799.941 1129.1 804.734 1128.19 806.966C1127.83 807.837 1128.57 810.363 1129.47 813.438C1130.88 818.243 1132.69 824.389 1131.31 827.661C1130.1 830.541 1124.88 831.659 1120.13 832.677C1116.03 833.557 1112.27 834.362 1111.75 836.164C1110.62 840.05 1117.05 854.593 1120.8 854.787C1122.6 854.88 1125.56 851.995 1128.82 848.827C1132.37 845.376 1136.26 841.589 1139.36 840.949C1143.55 840.083 1147.24 841.43 1149.57 842.28C1150.54 842.636 1151.28 842.905 1151.71 842.889C1153.19 842.832 1155.72 838.168 1154.72 836.674C1154.4 836.213 1153.43 835.469 1152.19 834.534C1149.44 832.443 1145.42 829.395 1144.81 826.405C1144.5 824.899 1144.59 821.665 1144.69 818.014C1144.87 811.177 1145.09 802.876 1142.83 801.718Z" fill="black" fill-rule="evenodd" clip-rule="evenodd"/>
</svg>
