<svg xmlns="http://www.w3.org/2000/svg" viewBox="1680.22 1759.01 204.21 149.28" fill="none">
  <path d="M1801.53 1791.86L1773.55 1764.01L1775.95 1810.47C1775.95 1810.47 1772.75 1814.1 1771.08 1817.31L1829.45 1847.25C1830.73 1847.91 1830.44 1849.81 1829.03 1850.06L1772.75 1860.04C1796.42 1903.29 1879.43 1890.61 1878.3 1837.6C1877.17 1784.59 1816.93 1785.02 1801.53 1791.86Z" fill="black"/>
  <path d="M1709.63 1854.36L1768.67 1847.1L1732.43 1866.14L1740.52 1877.65L1687.01 1884.06L1718.64 1867.28L1709.63 1854.36Z" fill="black"/>
  <path d="M1731.24 1817.87L1767.74 1830.94L1722.77 1795.51L1719.17 1808.64L1685.22 1798.86L1728.15 1832.48L1731.24 1817.87Z" fill="black"/>
</svg>
