<svg xmlns="http://www.w3.org/2000/svg" viewBox="1406.86 1746.22 174.79 173.47" fill="none">
  <path d="M1516.66 1753.67C1518.97 1751.28 1522.77 1751.22 1525.16 1753.54L1570.45 1797.54C1572.8 1799.83 1572.88 1803.57 1570.64 1805.96L1550.1 1827.81C1548.61 1829.4 1548.66 1831.88 1550.21 1833.4L1574.24 1857.03C1576.65 1859.41 1576.62 1863.31 1574.17 1865.65L1522.78 1914.69L1495.93 1887.7C1494.39 1886.16 1491.9 1886.13 1490.33 1887.63L1468.26 1908.74C1466.06 1910.84 1462.64 1910.97 1460.3 1909.03L1414.79 1871.45C1412.13 1869.26 1411.86 1865.29 1414.19 1862.76L1439.81 1834.97C1441.26 1833.4 1441.22 1830.97 1439.71 1829.45L1418.43 1807.98C1416.08 1805.6 1416.12 1801.76 1418.53 1799.43L1462.07 1757.41C1464.32 1755.24 1467.87 1755.16 1470.22 1757.24L1490.51 1775.21C1492.11 1776.63 1494.55 1776.54 1496.04 1775L1516.66 1753.67ZM1551.46 1804.84C1553.02 1803.25 1552.99 1800.7 1551.39 1799.15L1523.81 1772.55C1522.2 1771 1519.63 1771.06 1518.1 1772.7L1434.54 1862.28C1433 1863.93 1433.13 1866.54 1434.84 1868.03L1461.33 1891.06C1462.92 1892.44 1465.32 1892.35 1466.8 1890.85L1551.46 1804.84ZM1480.88 1792.16C1482.4 1790.59 1482.38 1788.1 1480.84 1786.55L1470.02 1775.68C1468.49 1774.14 1466.02 1774.1 1464.44 1775.59L1438 1800.49C1436.37 1802.03 1436.32 1804.61 1437.89 1806.21L1449.8 1818.32C1451.37 1819.92 1453.96 1819.91 1455.52 1818.3L1480.88 1792.16ZM1534.21 1843.48C1535.74 1841.96 1538.19 1841.92 1539.76 1843.39L1555.67 1858.26C1557.35 1859.83 1557.36 1862.5 1555.69 1864.08L1526.41 1891.9C1524.85 1893.38 1522.39 1893.36 1520.86 1891.85L1506.02 1877.28C1504.43 1875.72 1504.43 1873.16 1506 1871.59L1534.21 1843.48Z" fill="black" fill-rule="evenodd" clip-rule="evenodd"/>
</svg>
