<svg xmlns="http://www.w3.org/2000/svg" viewBox="1699.21 778.88 159.63 167.72" fill="none">
  <path d="M1827.01 830.523L1773.55 834.695C1773.55 834.695 1772.24 831.705 1766.17 831.705C1760.11 831.705 1755.82 836.697 1755.82 842.479C1755.82 848.262 1759.85 853.043 1766.17 853.043C1772.5 853.043 1774.48 848.987 1774.48 848.987L1796.44 847.153L1800.77 880.429L1784.98 903.351L1797.05 941.595H1814L1803 905.373L1816.41 885.94H1817.78L1836.69 941.595H1853.84L1836.37 882.492V845.115C1836.37 845.115 1841.23 843.333 1841.23 837.111C1841.23 830.888 1836.67 828.416 1832.89 828.416C1829.12 828.416 1827.01 830.523 1827.01 830.523Z" fill="black"/>
  <path d="M1835.44 803.375C1835.44 814.145 1826.71 822.875 1815.94 822.875C1805.17 822.875 1796.44 814.145 1796.44 803.375C1796.44 792.606 1805.17 783.875 1815.94 783.875C1826.71 783.875 1835.44 792.606 1835.44 803.375Z" fill="black"/>
  <path d="M1773.25 805.962C1773.25 816.732 1764.52 825.462 1753.75 825.462C1742.98 825.462 1734.25 816.732 1734.25 805.962C1734.25 795.193 1742.98 786.462 1753.75 786.462C1764.52 786.462 1773.25 795.193 1773.25 805.962Z" fill="black"/>
  <path d="M1748.57 833.118L1729.98 825.463L1717.06 871.876L1722.51 903.351L1704.21 941.595H1722.51L1737.72 912.625H1739.52L1748.85 941.595H1764.85L1752.31 880.429L1753.4 875.987H1755.82L1758.76 880.429L1778.36 881.426C1778.36 881.426 1779.59 884.365 1783.34 885.281C1787.09 886.196 1792.2 884.169 1793.35 879.565C1794.49 874.962 1792.54 870.302 1788.67 868.992C1784.79 867.681 1781.44 869.192 1781.44 869.192L1764.85 867.194L1760.56 861.498C1760.56 861.498 1751.92 859.439 1748.57 850.458C1745.21 841.478 1748.57 833.118 1748.57 833.118Z" fill="black"/>
</svg>
